<svg xmlns:xlink="http://www.w3.org/1999/xlink" width="32" xmlns="http://www.w3.org/2000/svg" height="32" id="screenshot-367d9b48-2bf7-80f0-8001-77cf59c23ad3" viewBox="0 0 32 32" style="-webkit-print-color-adjust: exact;" fill="none" stroke="#343a40" version="1.1"><g id="shape-367d9b48-2bf7-80f0-8001-77cf59c23ad3"><defs><clipPath id="frame-clip-367d9b48-2bf7-80f0-8001-77cf59c23ad3-633740f0-9a90-80f3-8001-78c26e02117e" class="frame-clip"><rect rx="0" ry="0" x="0" y="0" width="32" height="32" transform="matrix(1,0,0,1,0,0)"/></clipPath></defs><g clip-path="url (#frame-clip-367d9b48-2bf7-80f0-8001-77cf59c23ad3-633740f0-9a90-80f3-8001-78c26e02117e)"><clipPath id="frame-clip-367d9b48-2bf7-80f0-8001-77cf59c23ad3-633740f0-9a90-80f3-8001-78c26e02117e" class="frame-clip"><rect rx="0" ry="0" x="0" y="0" width="32" height="32" transform="matrix(1,0,0,1,0,0)"/></clipPath><g id="fills-367d9b48-2bf7-80f0-8001-77cf59c23ad3"></g><g class="frame-children"><g id="shape-367d9b48-2bf7-80f0-8001-77cfa0d472a5"><g id="fills-367d9b48-2bf7-80f0-8001-77cfa0d472a5"><path rx="0" ry="0" d="M4,8L28,8"/></g><g id="strokes-367d9b48-2bf7-80f0-8001-77cfa0d472a5"><g class="stroke-shape"><path rx="0" ry="0" d="M4,8L28,8" style="fill: none; stroke-width: 1; stroke: rgb(253, 240, 206); stroke-opacity: 1;"/></g></g></g><g id="shape-367d9b48-2bf7-80f0-8001-77cfc7be37cc"><g id="fills-367d9b48-2bf7-80f0-8001-77cfc7be37cc"><path rx="0" ry="0" d="M4,15.99L28,15.99"/></g><g id="strokes-367d9b48-2bf7-80f0-8001-77cfc7be37cc"><g class="stroke-shape"><path rx="0" ry="0" d="M4,15.99L28,15.99" style="fill: none; stroke-width: 1; stroke: rgb(253, 240, 206); stroke-opacity: 1;"/></g></g></g><g id="shape-367d9b48-2bf7-80f0-8001-77cfcc248561"><g id="fills-367d9b48-2bf7-80f0-8001-77cfcc248561"><path rx="0" ry="0" d="M4,23.98L28,23.98"/></g><g id="strokes-367d9b48-2bf7-80f0-8001-77cfcc248561"><g class="stroke-shape"><path rx="0" ry="0" d="M4,23.98L28,23.98" style="fill: none; stroke-width: 1; stroke: rgb(253, 240, 206); stroke-opacity: 1;"/></g></g></g></g></g></g></svg>
