<svg xmlns:xlink="http://www.w3.org/1999/xlink" width="32" xmlns="http://www.w3.org/2000/svg" height="32" id="screenshot-367d9b48-2bf7-80f0-8001-77cf6be7542d" viewBox="0 0 32 32" style="-webkit-print-color-adjust: exact;" fill="none" version="1.1"><g id="shape-367d9b48-2bf7-80f0-8001-77cf6be7542d"><defs><clipPath id="frame-clip-367d9b48-2bf7-80f0-8001-77cf6be7542d-1fdfa655-f449-8019-8001-78c27390d7bb" class="frame-clip"><rect rx="0" ry="0" x="0" y="0" width="32" height="32" transform="matrix(1,0,0,1,0,0)"/></clipPath></defs><g clip-path="url(#frame-clip-367d9b48-2bf7-80f0-8001-77cf6be7542d-1fdfa655-f449-8019-8001-78c27390d7bb)"><clipPath id="frame-clip-367d9b48-2bf7-80f0-8001-77cf6be7542d-1fdfa655-f449-8019-8001-78c27390d7bb" class="frame-clip"><rect rx="0" ry="0" x="0" y="0" width="32" height="32" transform="matrix(1,0,0,1,0,0)"/></clipPath><g id="fills-367d9b48-2bf7-80f0-8001-77cf6be7542d"><rect rx="0" ry="0" x="0" y="0" transform="matrix(1,0,0,1,0,0)" width="32" height="32" class="frame-background"/></g><g class="frame-children"><g id="shape-367d9b48-2bf7-80f0-8001-77cff902087f"><g id="fills-367d9b48-2bf7-80f0-8001-77cff902087f"><path rx="0" ry="0" d="M7.511,24.477L24.482,7.506"/></g><g id="strokes-367d9b48-2bf7-80f0-8001-77cff902087f"><g class="stroke-shape"><path rx="0" ry="0" d="M7.511,24.477L24.482,7.506" style="fill: none; stroke-width: 1; stroke: rgb(253, 240, 206); stroke-opacity: 1;"/></g></g></g><g id="shape-367d9b48-2bf7-80f0-8001-77d0053f38dd"><g id="fills-367d9b48-2bf7-80f0-8001-77d0053f38dd"><path rx="0" ry="0" d="M24.475,24.477L7.504,7.506"/></g><g id="strokes-367d9b48-2bf7-80f0-8001-77d0053f38dd"><g class="stroke-shape"><path rx="0" ry="0" d="M24.475,24.477L7.504,7.506" style="fill: none; stroke-width: 1; stroke: rgb(253, 240, 206); stroke-opacity: 1;"/></g></g></g></g></g></g></svg>